<?xml version="1.0" encoding="UTF-8"?>
<svg id="Layer_2" xmlns="http://www.w3.org/2000/svg" version="1.1" viewBox="0 0 44.7 44.7">
  <!-- Generator: Adobe Illustrator 29.5.1, SVG Export Plug-In . SVG Version: 2.1.0 Build 141)  -->
  <defs>
    <style>
      .st0 {
        fill: #1d1d1b;
      }
    </style>
  </defs>
  <path id="_x30_0" class="st0" d="M6.7,14.9c0-4.3,3.5-7.8,7.8-7.8s7.6,3.3,7.8,7.5h.2c.2-4.2,3.6-7.5,7.8-7.5s7.8,3.5,7.8,7.8-2.3,6.5-5.6,7.5c3.2,1,5.6,4,5.6,7.5s-3.5,7.8-7.8,7.8-7.6-3.3-7.8-7.5h-.2c-.2,4.2-3.6,7.5-7.8,7.5s-7.8-3.5-7.8-7.8,2.3-6.5,5.6-7.5c-3.2-1-5.6-3.9-5.6-7.5Z"/>
</svg>