<?xml version="1.0" encoding="UTF-8"?>
<svg id="Layer_2" xmlns="http://www.w3.org/2000/svg" version="1.1" viewBox="0 0 44.7 44.7">
  <!-- Generator: Adobe Illustrator 29.5.1, SVG Export Plug-In . SVG Version: 2.1.0 Build 141)  -->
  <defs>
    <style>
      .st0 {
        fill: #1d1d1b;
      }
    </style>
  </defs>
  <path id="_x30_3" class="st0" d="M7.1,23.7l6.3,11.1c.5.9,1.5,1.4,2.5,1.4h12.8c1,0,2-.5,2.5-1.3l6.5-11c.5-.9.5-2,0-2.9l-6.3-11.1c-.5-.9-1.5-1.4-2.5-1.4h-12.8c-1,0-2,.5-2.5,1.3l-6.5,11c-.5.9-.5,2,0,2.9ZM22.4,12.4c5.5,0,9.9,4.5,9.9,10,0,5.5-4.5,9.9-10,9.9-5.5,0-9.9-4.5-9.9-10,0-5.5,4.5-9.9,10-9.9Z"/>
</svg>